<mxfile host="app.diagrams.net" modified="2024-03-29T11:42:34.014Z" agent="Mozilla/5.0 (Windows NT 10.0; Win64; x64) AppleWebKit/537.36 (KHTML, like Gecko) Chrome/123.0.0.0 Safari/537.36 Edg/123.0.0.0" etag="Y4W0hkf3TguCCtpSl-jY" version="24.1.0" type="device">
  <diagram id="HF7SqTQ8aBaUUFUxi_xd" name="Page-1">
    <mxGraphModel dx="1042" dy="577" grid="0" gridSize="10" guides="1" tooltips="1" connect="1" arrows="1" fold="1" page="1" pageScale="1" pageWidth="827" pageHeight="1169" math="0" shadow="0">
      <root>
        <mxCell id="0" />
        <mxCell id="1" parent="0" />
        <mxCell id="i2P3ycoxlY-Xzl-sgAof-50" value="" style="rounded=0;whiteSpace=wrap;html=1;fillColor=none;strokeWidth=0.5;" parent="1" vertex="1">
          <mxGeometry x="400" y="40" width="700" height="458" as="geometry" />
        </mxCell>
        <mxCell id="gxEx5o5sEyBMET8zb0sG-4" value="" style="rounded=0;whiteSpace=wrap;html=1;fillColor=none;" parent="1" vertex="1">
          <mxGeometry x="428" y="295" width="134" height="180" as="geometry" />
        </mxCell>
        <mxCell id="gxEx5o5sEyBMET8zb0sG-5" value="" style="rounded=0;whiteSpace=wrap;html=1;fillColor=none;" parent="1" vertex="1">
          <mxGeometry x="423" y="58" width="280" height="192" as="geometry" />
        </mxCell>
        <mxCell id="gxEx5o5sEyBMET8zb0sG-6" value="" style="rounded=0;whiteSpace=wrap;html=1;fillColor=none;" parent="1" vertex="1">
          <mxGeometry x="589" y="295" width="187" height="180" as="geometry" />
        </mxCell>
        <mxCell id="gxEx5o5sEyBMET8zb0sG-8" value="" style="rounded=0;whiteSpace=wrap;html=1;fillColor=none;" parent="1" vertex="1">
          <mxGeometry x="804.5" y="295" width="270" height="180" as="geometry" />
        </mxCell>
        <mxCell id="Xlnorzk0uKCeysCiHdv6-1" value="Internet" style="shape=mxgraph.cisco.storage.cloud;sketch=0;html=1;pointerEvents=1;dashed=0;fillColor=#036897;strokeColor=#ffffff;strokeWidth=2;verticalLabelPosition=bottom;verticalAlign=top;align=center;outlineConnect=0;" parent="1" vertex="1">
          <mxGeometry x="958" y="77" width="120" height="70" as="geometry" />
        </mxCell>
        <mxCell id="i2P3ycoxlY-Xzl-sgAof-6" style="rounded=0;orthogonalLoop=1;jettySize=auto;html=1;entryX=0.04;entryY=0.5;entryDx=0;entryDy=0;entryPerimeter=0;endArrow=none;endFill=0;exitX=1;exitY=0.5;exitDx=0;exitDy=0;exitPerimeter=0;" parent="1" target="Xlnorzk0uKCeysCiHdv6-1" edge="1" source="HnOdq7Inpe0vzzXAogG3-2">
          <mxGeometry relative="1" as="geometry">
            <mxPoint x="194" y="473" as="sourcePoint" />
          </mxGeometry>
        </mxCell>
        <mxCell id="i2P3ycoxlY-Xzl-sgAof-41" style="edgeStyle=none;rounded=0;orthogonalLoop=1;jettySize=auto;html=1;entryX=0.5;entryY=0;entryDx=0;entryDy=0;entryPerimeter=0;endArrow=none;endFill=0;startSize=16;exitX=0.5;exitY=1;exitDx=0;exitDy=0;exitPerimeter=0;" parent="1" source="Xlnorzk0uKCeysCiHdv6-8" target="Xlnorzk0uKCeysCiHdv6-16" edge="1">
          <mxGeometry relative="1" as="geometry" />
        </mxCell>
        <mxCell id="Xlnorzk0uKCeysCiHdv6-8" value="" style="shape=mxgraph.cisco.switches.mgx_8000_multiservice_switch;sketch=0;html=1;pointerEvents=1;dashed=0;fillColor=#036897;strokeColor=#ffffff;strokeWidth=2;verticalLabelPosition=bottom;verticalAlign=top;align=center;outlineConnect=0;" parent="1" vertex="1">
          <mxGeometry x="506" y="314" width="40" height="30" as="geometry" />
        </mxCell>
        <mxCell id="i2P3ycoxlY-Xzl-sgAof-23" style="edgeStyle=none;rounded=0;orthogonalLoop=1;jettySize=auto;html=1;entryX=0.83;entryY=0.5;entryDx=0;entryDy=0;entryPerimeter=0;endArrow=none;endFill=0;startSize=16;" parent="1" source="Xlnorzk0uKCeysCiHdv6-9" target="Xlnorzk0uKCeysCiHdv6-19" edge="1">
          <mxGeometry relative="1" as="geometry" />
        </mxCell>
        <mxCell id="i2P3ycoxlY-Xzl-sgAof-24" style="edgeStyle=none;rounded=0;orthogonalLoop=1;jettySize=auto;html=1;entryX=0.83;entryY=0.5;entryDx=0;entryDy=0;entryPerimeter=0;endArrow=none;endFill=0;startSize=16;" parent="1" source="Xlnorzk0uKCeysCiHdv6-9" target="Xlnorzk0uKCeysCiHdv6-18" edge="1">
          <mxGeometry relative="1" as="geometry" />
        </mxCell>
        <mxCell id="i2P3ycoxlY-Xzl-sgAof-25" style="edgeStyle=none;rounded=0;orthogonalLoop=1;jettySize=auto;html=1;entryX=0.86;entryY=0.85;entryDx=0;entryDy=0;entryPerimeter=0;endArrow=none;endFill=0;startSize=16;" parent="1" source="Xlnorzk0uKCeysCiHdv6-9" target="Xlnorzk0uKCeysCiHdv6-20" edge="1">
          <mxGeometry relative="1" as="geometry" />
        </mxCell>
        <mxCell id="i2P3ycoxlY-Xzl-sgAof-26" style="edgeStyle=none;rounded=0;orthogonalLoop=1;jettySize=auto;html=1;entryX=0.5;entryY=1;entryDx=0;entryDy=0;entryPerimeter=0;endArrow=none;endFill=0;startSize=16;" parent="1" source="Xlnorzk0uKCeysCiHdv6-9" target="Xlnorzk0uKCeysCiHdv6-21" edge="1">
          <mxGeometry relative="1" as="geometry" />
        </mxCell>
        <mxCell id="i2P3ycoxlY-Xzl-sgAof-27" style="edgeStyle=none;rounded=0;orthogonalLoop=1;jettySize=auto;html=1;entryX=0.5;entryY=1;entryDx=0;entryDy=0;entryPerimeter=0;endArrow=none;endFill=0;startSize=16;" parent="1" source="Xlnorzk0uKCeysCiHdv6-9" target="Xlnorzk0uKCeysCiHdv6-14" edge="1">
          <mxGeometry relative="1" as="geometry" />
        </mxCell>
        <mxCell id="Xlnorzk0uKCeysCiHdv6-9" value="" style="shape=mxgraph.cisco.switches.mgx_8000_multiservice_switch;sketch=0;html=1;pointerEvents=1;dashed=0;fillColor=#036897;strokeColor=#ffffff;strokeWidth=2;verticalLabelPosition=bottom;verticalAlign=top;align=center;outlineConnect=0;" parent="1" vertex="1">
          <mxGeometry x="636.5" y="204" width="40" height="30" as="geometry" />
        </mxCell>
        <mxCell id="i2P3ycoxlY-Xzl-sgAof-30" style="edgeStyle=none;rounded=0;orthogonalLoop=1;jettySize=auto;html=1;entryX=0.16;entryY=0.5;entryDx=0;entryDy=0;entryPerimeter=0;endArrow=none;endFill=0;startSize=16;" parent="1" source="Xlnorzk0uKCeysCiHdv6-10" target="Xlnorzk0uKCeysCiHdv6-22" edge="1">
          <mxGeometry relative="1" as="geometry" />
        </mxCell>
        <mxCell id="i2P3ycoxlY-Xzl-sgAof-31" style="edgeStyle=none;rounded=0;orthogonalLoop=1;jettySize=auto;html=1;entryX=0.16;entryY=0.5;entryDx=0;entryDy=0;entryPerimeter=0;endArrow=none;endFill=0;startSize=16;" parent="1" source="Xlnorzk0uKCeysCiHdv6-10" target="Xlnorzk0uKCeysCiHdv6-23" edge="1">
          <mxGeometry relative="1" as="geometry" />
        </mxCell>
        <mxCell id="i2P3ycoxlY-Xzl-sgAof-33" style="edgeStyle=none;rounded=0;orthogonalLoop=1;jettySize=auto;html=1;entryX=0.5;entryY=0;entryDx=0;entryDy=0;entryPerimeter=0;endArrow=none;endFill=0;startSize=16;" parent="1" source="Xlnorzk0uKCeysCiHdv6-10" target="Xlnorzk0uKCeysCiHdv6-24" edge="1">
          <mxGeometry relative="1" as="geometry" />
        </mxCell>
        <mxCell id="Xlnorzk0uKCeysCiHdv6-10" value="" style="shape=mxgraph.cisco.switches.mgx_8000_multiservice_switch;sketch=0;html=1;pointerEvents=1;dashed=0;fillColor=#036897;strokeColor=#ffffff;strokeWidth=2;verticalLabelPosition=bottom;verticalAlign=top;align=center;outlineConnect=0;" parent="1" vertex="1">
          <mxGeometry x="826" y="333" width="40" height="30" as="geometry" />
        </mxCell>
        <mxCell id="i2P3ycoxlY-Xzl-sgAof-44" style="edgeStyle=orthogonalEdgeStyle;rounded=0;orthogonalLoop=1;jettySize=auto;html=1;entryX=0.5;entryY=1;entryDx=0;entryDy=0;endArrow=none;endFill=0;startSize=16;exitX=0.5;exitY=0;exitDx=0;exitDy=0;exitPerimeter=0;entryPerimeter=0;" parent="1" source="Xlnorzk0uKCeysCiHdv6-8" edge="1">
          <mxGeometry relative="1" as="geometry">
            <mxPoint x="533" y="314" as="sourcePoint" />
            <mxPoint x="878.0000000000001" y="224" as="targetPoint" />
            <Array as="points">
              <mxPoint x="526" y="268" />
              <mxPoint x="873" y="268" />
              <mxPoint x="873" y="224" />
            </Array>
          </mxGeometry>
        </mxCell>
        <mxCell id="Xlnorzk0uKCeysCiHdv6-11" value="" style="shape=mxgraph.cisco.switches.mgx_8000_multiservice_switch;sketch=0;html=1;pointerEvents=1;dashed=0;fillColor=#036897;strokeColor=#ffffff;strokeWidth=2;verticalLabelPosition=bottom;verticalAlign=top;align=center;outlineConnect=0;" parent="1" vertex="1">
          <mxGeometry x="722" y="333" width="40" height="30" as="geometry" />
        </mxCell>
        <mxCell id="i2P3ycoxlY-Xzl-sgAof-47" style="edgeStyle=none;rounded=0;orthogonalLoop=1;jettySize=auto;html=1;entryX=0.83;entryY=0.5;entryDx=0;entryDy=0;entryPerimeter=0;endArrow=none;endFill=0;startSize=16;exitX=0.5;exitY=1;exitDx=0;exitDy=0;exitPerimeter=0;" parent="1" source="Xlnorzk0uKCeysCiHdv6-11" target="Xlnorzk0uKCeysCiHdv6-15" edge="1">
          <mxGeometry relative="1" as="geometry" />
        </mxCell>
        <mxCell id="Xlnorzk0uKCeysCiHdv6-14" value="" style="shape=mxgraph.cisco.computers_and_peripherals.pc;sketch=0;html=1;pointerEvents=1;dashed=0;fillColor=#036897;strokeColor=#ffffff;strokeWidth=2;verticalLabelPosition=bottom;verticalAlign=top;align=center;outlineConnect=0;" parent="1" vertex="1">
          <mxGeometry x="636.5" y="92" width="40" height="30" as="geometry" />
        </mxCell>
        <mxCell id="Xlnorzk0uKCeysCiHdv6-15" value="" style="shape=mxgraph.cisco.computers_and_peripherals.pc;sketch=0;html=1;pointerEvents=1;dashed=0;fillColor=#036897;strokeColor=#ffffff;strokeWidth=2;verticalLabelPosition=bottom;verticalAlign=top;align=center;outlineConnect=0;" parent="1" vertex="1">
          <mxGeometry x="602" y="428" width="40" height="30" as="geometry" />
        </mxCell>
        <mxCell id="Xlnorzk0uKCeysCiHdv6-16" value="" style="shape=mxgraph.cisco.computers_and_peripherals.pc;sketch=0;html=1;pointerEvents=1;dashed=0;fillColor=#036897;strokeColor=#ffffff;strokeWidth=2;verticalLabelPosition=bottom;verticalAlign=top;align=center;outlineConnect=0;" parent="1" vertex="1">
          <mxGeometry x="506" y="428" width="40" height="30" as="geometry" />
        </mxCell>
        <mxCell id="Xlnorzk0uKCeysCiHdv6-18" value="" style="shape=mxgraph.cisco.computers_and_peripherals.pc;sketch=0;html=1;pointerEvents=1;dashed=0;fillColor=#036897;strokeColor=#ffffff;strokeWidth=2;verticalLabelPosition=bottom;verticalAlign=top;align=center;outlineConnect=0;" parent="1" vertex="1">
          <mxGeometry x="453.5" y="148" width="40" height="30" as="geometry" />
        </mxCell>
        <mxCell id="Xlnorzk0uKCeysCiHdv6-19" value="" style="shape=mxgraph.cisco.computers_and_peripherals.pc;sketch=0;html=1;pointerEvents=1;dashed=0;fillColor=#036897;strokeColor=#ffffff;strokeWidth=2;verticalLabelPosition=bottom;verticalAlign=top;align=center;outlineConnect=0;" parent="1" vertex="1">
          <mxGeometry x="453.5" y="204" width="40" height="30" as="geometry" />
        </mxCell>
        <mxCell id="Xlnorzk0uKCeysCiHdv6-20" value="" style="shape=mxgraph.cisco.computers_and_peripherals.pc;sketch=0;html=1;pointerEvents=1;dashed=0;fillColor=#036897;strokeColor=#ffffff;strokeWidth=2;verticalLabelPosition=bottom;verticalAlign=top;align=center;outlineConnect=0;" parent="1" vertex="1">
          <mxGeometry x="453.5" y="92" width="40" height="30" as="geometry" />
        </mxCell>
        <mxCell id="Xlnorzk0uKCeysCiHdv6-21" value="" style="shape=mxgraph.cisco.computers_and_peripherals.pc;sketch=0;html=1;pointerEvents=1;dashed=0;fillColor=#036897;strokeColor=#ffffff;strokeWidth=2;verticalLabelPosition=bottom;verticalAlign=top;align=center;outlineConnect=0;" parent="1" vertex="1">
          <mxGeometry x="543" y="92" width="40" height="30" as="geometry" />
        </mxCell>
        <mxCell id="Xlnorzk0uKCeysCiHdv6-22" value="" style="shape=mxgraph.cisco.computers_and_peripherals.pc;sketch=0;html=1;pointerEvents=1;dashed=0;fillColor=#036897;strokeColor=#ffffff;strokeWidth=2;verticalLabelPosition=bottom;verticalAlign=top;align=center;outlineConnect=0;" parent="1" vertex="1">
          <mxGeometry x="1006.5" y="428" width="40" height="30" as="geometry" />
        </mxCell>
        <mxCell id="Xlnorzk0uKCeysCiHdv6-23" value="" style="shape=mxgraph.cisco.computers_and_peripherals.pc;sketch=0;html=1;pointerEvents=1;dashed=0;fillColor=#036897;strokeColor=#ffffff;strokeWidth=2;verticalLabelPosition=bottom;verticalAlign=top;align=center;outlineConnect=0;" parent="1" vertex="1">
          <mxGeometry x="1006.5" y="333" width="40" height="30" as="geometry" />
        </mxCell>
        <mxCell id="Xlnorzk0uKCeysCiHdv6-24" value="" style="shape=mxgraph.cisco.computers_and_peripherals.pc;sketch=0;html=1;pointerEvents=1;dashed=0;fillColor=#036897;strokeColor=#ffffff;strokeWidth=2;verticalLabelPosition=bottom;verticalAlign=top;align=center;outlineConnect=0;" parent="1" vertex="1">
          <mxGeometry x="826" y="428" width="40" height="30" as="geometry" />
        </mxCell>
        <mxCell id="i2P3ycoxlY-Xzl-sgAof-1" value="Кабинет&amp;nbsp;&lt;div&gt;директора&lt;/div&gt;" style="text;html=1;strokeColor=none;fillColor=none;align=center;verticalAlign=middle;whiteSpace=wrap;rounded=0;" parent="1" vertex="1">
          <mxGeometry x="428" y="305" width="73" height="20" as="geometry" />
        </mxCell>
        <mxCell id="i2P3ycoxlY-Xzl-sgAof-2" value="Отдел контроля&lt;br&gt;&amp;nbsp;качества" style="text;html=1;strokeColor=none;fillColor=none;align=center;verticalAlign=middle;whiteSpace=wrap;rounded=0;" parent="1" vertex="1">
          <mxGeometry x="602" y="305" width="93" height="20" as="geometry" />
        </mxCell>
        <mxCell id="i2P3ycoxlY-Xzl-sgAof-4" value="Отдел разработки" style="text;html=1;strokeColor=none;fillColor=none;align=center;verticalAlign=middle;whiteSpace=wrap;rounded=0;" parent="1" vertex="1">
          <mxGeometry x="503" y="64" width="120" height="20" as="geometry" />
        </mxCell>
        <mxCell id="i2P3ycoxlY-Xzl-sgAof-5" value="Производственный цех" style="text;html=1;strokeColor=none;fillColor=none;align=center;verticalAlign=middle;whiteSpace=wrap;rounded=0;" parent="1" vertex="1">
          <mxGeometry x="866" y="301" width="147" height="20" as="geometry" />
        </mxCell>
        <mxCell id="0tOz5anrtfCMkOrBPEIR-2" style="edgeStyle=none;rounded=0;orthogonalLoop=1;jettySize=auto;html=1;endArrow=none;endFill=0;startSize=16;exitX=0.5;exitY=1;exitDx=0;exitDy=0;exitPerimeter=0;entryX=0.5;entryY=0;entryDx=0;entryDy=0;entryPerimeter=0;" edge="1" parent="1" source="Xlnorzk0uKCeysCiHdv6-11" target="0tOz5anrtfCMkOrBPEIR-3">
          <mxGeometry relative="1" as="geometry">
            <mxPoint x="650" y="330" as="sourcePoint" />
            <mxPoint x="593" y="351" as="targetPoint" />
          </mxGeometry>
        </mxCell>
        <mxCell id="0tOz5anrtfCMkOrBPEIR-3" value="" style="shape=mxgraph.cisco.computers_and_peripherals.pc;sketch=0;html=1;pointerEvents=1;dashed=0;fillColor=#036897;strokeColor=#ffffff;strokeWidth=2;verticalLabelPosition=bottom;verticalAlign=top;align=center;outlineConnect=0;" vertex="1" parent="1">
          <mxGeometry x="722" y="428" width="40" height="30" as="geometry" />
        </mxCell>
        <mxCell id="0tOz5anrtfCMkOrBPEIR-5" value="" style="group" vertex="1" connectable="0" parent="1">
          <mxGeometry x="731" y="58" width="220" height="191" as="geometry" />
        </mxCell>
        <mxCell id="gxEx5o5sEyBMET8zb0sG-7" value="" style="rounded=0;whiteSpace=wrap;html=1;fillColor=none;" parent="0tOz5anrtfCMkOrBPEIR-5" vertex="1">
          <mxGeometry width="211" height="191" as="geometry" />
        </mxCell>
        <mxCell id="i2P3ycoxlY-Xzl-sgAof-10" style="edgeStyle=none;rounded=0;orthogonalLoop=1;jettySize=auto;html=1;entryX=0;entryY=0.5;entryDx=0;entryDy=0;entryPerimeter=0;endArrow=none;endFill=0;" parent="0tOz5anrtfCMkOrBPEIR-5" source="Xlnorzk0uKCeysCiHdv6-2" target="Xlnorzk0uKCeysCiHdv6-7" edge="1">
          <mxGeometry relative="1" as="geometry" />
        </mxCell>
        <mxCell id="Xlnorzk0uKCeysCiHdv6-2" value="" style="shape=mxgraph.cisco.servers.standard_host;sketch=0;html=1;pointerEvents=1;dashed=0;fillColor=#036897;strokeColor=#ffffff;strokeWidth=2;verticalLabelPosition=bottom;verticalAlign=top;align=center;outlineConnect=0;" parent="0tOz5anrtfCMkOrBPEIR-5" vertex="1">
          <mxGeometry x="13" y="9" width="30" height="50" as="geometry" />
        </mxCell>
        <mxCell id="i2P3ycoxlY-Xzl-sgAof-11" value="" style="edgeStyle=none;rounded=0;orthogonalLoop=1;jettySize=auto;html=1;endArrow=none;endFill=0;entryX=0;entryY=0.5;entryDx=0;entryDy=0;entryPerimeter=0;exitX=0;exitY=0.5;exitDx=0;exitDy=0;exitPerimeter=0;" parent="0tOz5anrtfCMkOrBPEIR-5" source="Xlnorzk0uKCeysCiHdv6-3" target="Xlnorzk0uKCeysCiHdv6-7" edge="1">
          <mxGeometry relative="1" as="geometry" />
        </mxCell>
        <mxCell id="Xlnorzk0uKCeysCiHdv6-3" value="" style="shape=mxgraph.cisco.servers.standard_host;sketch=0;html=1;pointerEvents=1;dashed=0;fillColor=#036897;strokeColor=#ffffff;strokeWidth=2;verticalLabelPosition=bottom;verticalAlign=top;align=center;outlineConnect=0;" parent="0tOz5anrtfCMkOrBPEIR-5" vertex="1">
          <mxGeometry x="13" y="66" width="30" height="50" as="geometry" />
        </mxCell>
        <mxCell id="i2P3ycoxlY-Xzl-sgAof-13" style="edgeStyle=none;rounded=0;orthogonalLoop=1;jettySize=auto;html=1;entryX=0;entryY=0.5;entryDx=0;entryDy=0;entryPerimeter=0;endArrow=none;endFill=0;exitX=0;exitY=0.5;exitDx=0;exitDy=0;exitPerimeter=0;" parent="0tOz5anrtfCMkOrBPEIR-5" source="Xlnorzk0uKCeysCiHdv6-4" target="Xlnorzk0uKCeysCiHdv6-7" edge="1">
          <mxGeometry relative="1" as="geometry" />
        </mxCell>
        <mxCell id="Xlnorzk0uKCeysCiHdv6-4" value="" style="shape=mxgraph.cisco.servers.standard_host;sketch=0;html=1;pointerEvents=1;dashed=0;fillColor=#036897;strokeColor=#ffffff;strokeWidth=2;verticalLabelPosition=bottom;verticalAlign=top;align=center;outlineConnect=0;" parent="0tOz5anrtfCMkOrBPEIR-5" vertex="1">
          <mxGeometry x="13" y="126" width="30" height="50" as="geometry" />
        </mxCell>
        <mxCell id="i2P3ycoxlY-Xzl-sgAof-7" style="edgeStyle=none;rounded=0;orthogonalLoop=1;jettySize=auto;html=1;exitX=0.5;exitY=0;exitDx=0;exitDy=0;exitPerimeter=0;entryX=0.5;entryY=1;entryDx=0;entryDy=0;entryPerimeter=0;endArrow=none;endFill=0;" parent="0tOz5anrtfCMkOrBPEIR-5" target="Xlnorzk0uKCeysCiHdv6-7" edge="1" source="HnOdq7Inpe0vzzXAogG3-2">
          <mxGeometry relative="1" as="geometry">
            <mxPoint x="62" y="163" as="sourcePoint" />
          </mxGeometry>
        </mxCell>
        <mxCell id="Xlnorzk0uKCeysCiHdv6-7" value="" style="shape=mxgraph.cisco.switches.mgx_8000_multiservice_switch;sketch=0;html=1;pointerEvents=1;dashed=0;fillColor=#036897;strokeColor=#ffffff;strokeWidth=2;verticalLabelPosition=bottom;verticalAlign=top;align=center;outlineConnect=0;" parent="0tOz5anrtfCMkOrBPEIR-5" vertex="1">
          <mxGeometry x="122" y="136" width="40" height="30" as="geometry" />
        </mxCell>
        <mxCell id="i2P3ycoxlY-Xzl-sgAof-3" value="Серверная" style="text;html=1;strokeColor=none;fillColor=none;align=center;verticalAlign=middle;whiteSpace=wrap;rounded=0;" parent="0tOz5anrtfCMkOrBPEIR-5" vertex="1">
          <mxGeometry x="52.5" y="6" width="106" height="20" as="geometry" />
        </mxCell>
        <mxCell id="HnOdq7Inpe0vzzXAogG3-2" value="&lt;span style=&quot;color: rgba(0, 0, 0, 0); font-family: monospace; font-size: 0px; text-align: start;&quot;&gt;%3CmxGraphModel%3E%3Croot%3E%3CmxCell%20id%3D%220%22%2F%3E%3CmxCell%20id%3D%221%22%20parent%3D%220%22%2F%3E%3CmxCell%20id%3D%222%22%20value%3D%22%22%20style%3D%22shape%3Dmxgraph.cisco.storage.relational_database%3Bsketch%3D0%3Bhtml%3D1%3BpointerEvents%3D1%3Bdashed%3D0%3BfillColor%3D%23036897%3BstrokeColor%3D%23ffffff%3BstrokeWidth%3D2%3BverticalLabelPosition%3Dbottom%3BverticalAlign%3Dtop%3Balign%3Dcenter%3BoutlineConnect%3D0%3B%22%20vertex%3D%221%22%20parent%3D%221%22%3E%3CmxGeometry%20x%3D%22113%22%20y%3D%22460%22%20width%3D%2240%22%20height%3D%2230%22%20as%3D%22geometry%22%2F%3E%3C%2FmxCell%3E%3C%2Froot%3E%3C%2FmxGraphModel%3E&lt;/span&gt;&lt;span style=&quot;color: rgba(0, 0, 0, 0); font-family: monospace; font-size: 0px; text-align: start;&quot;&gt;%3CmxGraphModel%3E%3Croot%3E%3CmxCell%20id%3D%220%22%2F%3E%3CmxCell%20id%3D%221%22%20parent%3D%220%22%2F%3E%3CmxCell%20id%3D%222%22%20value%3D%22%22%20style%3D%22shape%3Dmxgraph.cisco.storage.relational_database%3Bsketch%3D0%3Bhtml%3D1%3BpointerEvents%3D1%3Bdashed%3D0%3BfillColor%3D%23036897%3BstrokeColor%3D%23ffffff%3BstrokeWidth%3D2%3BverticalLabelPosition%3Dbottom%3BverticalAlign%3Dtop%3Balign%3Dcenter%3BoutlineConnect%3D0%3B%22%20vertex%3D%221%22%20parent%3D%221%22%3E%3CmxGeometry%20x%3D%22113%22%20y%3D%22460%22%20width%3D%2240%22%20height%3D%2230%22%20as%3D%22geometry%22%2F%3E%3C%2FmxCell%3E%3C%2Froot%3E%3C%2FmxGraphModel%3E&lt;/span&gt;" style="shape=mxgraph.cisco.routers.router;sketch=0;html=1;pointerEvents=1;dashed=0;fillColor=#036897;strokeColor=#ffffff;strokeWidth=2;verticalLabelPosition=bottom;verticalAlign=top;align=center;outlineConnect=0;" parent="0tOz5anrtfCMkOrBPEIR-5" vertex="1">
          <mxGeometry x="122" y="39" width="40" height="30" as="geometry" />
        </mxCell>
        <mxCell id="0tOz5anrtfCMkOrBPEIR-21" value="" style="shape=mxgraph.cisco.misc.access_point;sketch=0;html=1;pointerEvents=1;dashed=0;fillColor=#036897;strokeColor=#ffffff;strokeWidth=2;verticalLabelPosition=bottom;verticalAlign=top;align=center;outlineConnect=0;" vertex="1" parent="0tOz5anrtfCMkOrBPEIR-5">
          <mxGeometry x="158.5" y="83" width="40" height="30" as="geometry" />
        </mxCell>
        <mxCell id="0tOz5anrtfCMkOrBPEIR-24" style="edgeStyle=none;rounded=0;orthogonalLoop=1;jettySize=auto;html=1;exitX=0.5;exitY=0.985;exitDx=0;exitDy=0;exitPerimeter=0;entryX=0.5;entryY=0;entryDx=0;entryDy=0;entryPerimeter=0;endArrow=none;endFill=0;" edge="1" parent="0tOz5anrtfCMkOrBPEIR-5" source="0tOz5anrtfCMkOrBPEIR-21" target="Xlnorzk0uKCeysCiHdv6-7">
          <mxGeometry relative="1" as="geometry">
            <mxPoint x="152" y="39" as="sourcePoint" />
            <mxPoint x="152" y="176" as="targetPoint" />
          </mxGeometry>
        </mxCell>
        <mxCell id="0tOz5anrtfCMkOrBPEIR-9" value="" style="endArrow=none;html=1;rounded=0;edgeStyle=orthogonalEdgeStyle;exitX=0.5;exitY=1;exitDx=0;exitDy=0;exitPerimeter=0;entryX=0.5;entryY=1;entryDx=0;entryDy=0;entryPerimeter=0;" edge="1" parent="1" target="Xlnorzk0uKCeysCiHdv6-7">
          <mxGeometry width="50" height="50" relative="1" as="geometry">
            <mxPoint x="656.01" y="231" as="sourcePoint" />
            <mxPoint x="872.51" y="221" as="targetPoint" />
            <Array as="points">
              <mxPoint x="656" y="258" />
              <mxPoint x="873" y="258" />
            </Array>
          </mxGeometry>
        </mxCell>
        <mxCell id="0tOz5anrtfCMkOrBPEIR-13" style="edgeStyle=orthogonalEdgeStyle;rounded=0;orthogonalLoop=1;jettySize=auto;html=1;entryX=0.5;entryY=1;entryDx=0;entryDy=0;endArrow=none;endFill=0;startSize=16;exitX=0.5;exitY=0;exitDx=0;exitDy=0;exitPerimeter=0;entryPerimeter=0;" edge="1" parent="1" source="Xlnorzk0uKCeysCiHdv6-10" target="Xlnorzk0uKCeysCiHdv6-7">
          <mxGeometry relative="1" as="geometry">
            <mxPoint x="733" y="343" as="sourcePoint" />
            <mxPoint x="883" y="234" as="targetPoint" />
            <Array as="points">
              <mxPoint x="846" y="286" />
              <mxPoint x="873" y="286" />
            </Array>
          </mxGeometry>
        </mxCell>
        <mxCell id="0tOz5anrtfCMkOrBPEIR-16" style="edgeStyle=orthogonalEdgeStyle;rounded=0;orthogonalLoop=1;jettySize=auto;html=1;entryX=0.5;entryY=1;entryDx=0;entryDy=0;endArrow=none;endFill=0;startSize=16;exitX=0.5;exitY=0;exitDx=0;exitDy=0;exitPerimeter=0;entryPerimeter=0;" edge="1" parent="1" source="Xlnorzk0uKCeysCiHdv6-11" target="Xlnorzk0uKCeysCiHdv6-7">
          <mxGeometry relative="1" as="geometry">
            <mxPoint x="752" y="343" as="sourcePoint" />
            <mxPoint x="883" y="234" as="targetPoint" />
            <Array as="points">
              <mxPoint x="742" y="278" />
              <mxPoint x="873" y="278" />
            </Array>
          </mxGeometry>
        </mxCell>
        <mxCell id="0tOz5anrtfCMkOrBPEIR-17" style="rounded=0;orthogonalLoop=1;jettySize=auto;html=1;endArrow=none;endFill=0;exitX=0.5;exitY=1;exitDx=0;exitDy=0;exitPerimeter=0;entryX=0.5;entryY=0;entryDx=0;entryDy=0;entryPerimeter=0;" edge="1" parent="1" source="Xlnorzk0uKCeysCiHdv6-8" target="0tOz5anrtfCMkOrBPEIR-18">
          <mxGeometry relative="1" as="geometry">
            <mxPoint x="462.1153846153845" y="382" as="targetPoint" />
            <mxPoint x="480" y="404" as="sourcePoint" />
          </mxGeometry>
        </mxCell>
        <mxCell id="0tOz5anrtfCMkOrBPEIR-18" value="" style="shape=mxgraph.cisco.wireless.wireless_transport;sketch=0;html=1;pointerEvents=1;dashed=0;fillColor=#036897;strokeColor=#ffffff;strokeWidth=2;verticalLabelPosition=bottom;verticalAlign=top;align=center;outlineConnect=0;" vertex="1" parent="1">
          <mxGeometry x="444.5" y="377" width="40" height="30" as="geometry" />
        </mxCell>
      </root>
    </mxGraphModel>
  </diagram>
</mxfile>
